<svg width="3145" height="732" viewBox="0 0 3145 732" fill="none" xmlns="http://www.w3.org/2000/svg">
<path fill-rule="evenodd" clip-rule="evenodd" d="M461.57 32.0536C455 28.6395 437.935 6.63086 422.859 23.5143C413.486 34.0087 404.543 46.5377 395.584 57.7426C377.269 80.6486 359.847 102.441 341.531 125.347C323.219 148.255 305.795 170.048 287.481 192.953L247.397 243.089C236.949 256.148 235.94 255.149 237.608 270.13C238.927 281.957 291.164 329.758 303.85 339.902C324.626 356.512 340.971 365.744 363.42 379.086C379.828 388.839 379.591 389.935 393.324 388.405C402.565 387.376 415.739 367.378 423.465 357.715L585.682 154.946C600.136 136.032 574.245 123.999 569.433 118.296C578.966 99.9451 594.9 98.455 591.747 70.1403C589.877 53.3536 563.777 37.1928 552.852 28.4581C533.938 13.3361 522.136 -2.37193 498.166 0.29879C479.357 2.39388 472.453 22.8677 461.57 32.0536Z" fill="#FFCC00"/>
<path fill-rule="evenodd" clip-rule="evenodd" d="M24.5905 562.952C25.7555 573.404 32.4157 571.333 30.3898 579.858L7.91666 674.141C6.22266 680.293 5.29441 686.466 3.50534 693.029C-8.43044 736.841 8.69798 717.215 76.8504 685.674L128.949 659.925C139.158 654.623 147.838 671.868 164.743 650.108L220.22 588.622C223.463 585.215 224.515 584.749 227.601 580.825L325.68 472.465C329.052 469.087 329.856 468.528 332.957 464.585C336.041 460.66 337.094 460.195 340.335 456.789L353.911 441.491C360.286 433.38 373.235 425.455 371.909 413.546C370.616 401.947 347.686 393.335 332.833 382.993C329.625 380.76 326.451 378.873 322.918 376.706L302.182 362.151C292.529 354.322 282.307 347.755 273.617 338.693L238.195 303.57C225.549 291.328 217.584 278.79 200.184 303.637L152.728 371.537C150.429 375.359 149.013 376.571 146.441 380.208L33.038 542.313C28.5817 547.876 23.5222 553.365 24.5905 562.952Z" fill="black"/>
<path d="M113.855 577.514V564.634H153.663V577.514H113.855Z" fill="white"/>
<path d="M483.711 163.27H465.271V136.048H437.902V117.315H465.271V89.9453H483.711V117.315H511.227V136.048H483.711V163.27Z" fill="black"/>
<path d="M844.63 390.642V341.003H717.49V540.705H773.026V470.762H837.213V422.642H773.026V390.642H844.63ZM870.353 367.392H922.559V322.363H870.353V367.392ZM869.926 540.705H922.988V386.649H869.926V540.705ZM1015.8 545.746C1056.74 545.746 1083.89 524.681 1083.89 492.491C1083.89 453.406 1051.56 448.366 1027.21 444.039C1012.57 441.423 1000.82 439.381 1000.82 430.63C1000.82 423.451 1006.53 419.266 1015.04 419.266C1024.64 419.266 1031.25 423.831 1031.25 433.674H1080.94C1080.32 402.483 1054.93 381.608 1015.71 381.608C976.193 381.608 949.9 401.531 949.9 432.39C949.9 469.763 981.566 476.99 1005.43 480.89C1020.27 483.315 1031.92 485.835 1031.92 494.726C1031.92 502.714 1024.55 506.66 1016.8 506.66C1006.72 506.66 998.874 501.478 998.874 490.209H947.809C948.284 523.589 973.817 545.746 1015.8 545.746ZM1109.13 367.392H1161.34V322.363H1109.13V367.392ZM1108.71 540.705H1161.77V386.649H1108.71V540.705ZM1271.37 545.746C1314.73 545.746 1347.68 517.549 1353.67 475.754H1301.51C1297.14 489.496 1285.58 498.197 1271.37 498.197C1252.87 498.197 1239.46 483.695 1239.46 463.629C1239.46 443.563 1252.73 429.348 1271.37 429.348C1285.2 429.348 1296.95 437.526 1301.42 450.125H1353.1C1347.3 409.14 1314.82 381.847 1271.56 381.847C1221.82 381.847 1186.3 415.795 1186.3 463.486C1186.3 511.13 1221.96 545.746 1271.37 545.746ZM1501.02 386.505L1495.6 398.393C1482.9 387.933 1466.69 381.847 1448.53 381.847C1401.41 381.847 1367.74 415.795 1367.74 463.534C1367.74 511.415 1401.41 545.746 1448.53 545.746C1466.4 545.746 1482.38 539.85 1495.03 529.626L1499.54 540.515H1540.53V386.505H1501.02ZM1455.61 498.767C1435.74 498.767 1421.09 483.79 1421.09 463.629C1421.09 443.612 1435.59 428.587 1455.61 428.587C1475.48 428.587 1490.13 443.612 1490.13 463.629C1490.13 483.742 1475.48 498.767 1455.61 498.767ZM1738.09 545.746C1802.13 545.746 1847.73 502.048 1847.73 440.853C1847.73 379.658 1802.13 335.962 1738.09 335.962C1673.9 335.962 1628.11 379.802 1628.11 440.853C1628.11 501.906 1673.9 545.746 1738.09 545.746ZM1738.09 494.584C1707.7 494.584 1685.36 471.951 1685.36 440.853C1685.36 409.757 1707.7 387.124 1738.09 387.124C1768.47 387.124 1790.48 409.615 1790.48 440.853C1790.48 472.141 1768.47 494.584 1738.09 494.584ZM1965.36 382.084C1945.53 382.084 1928.51 389.74 1917.05 402.483L1909.78 386.649H1872.55V540.705H1925.61V458.447C1925.61 438.715 1935.07 427.159 1951.57 427.159C1964.84 427.159 1971.54 436.051 1971.54 453.977V540.705H2024.6V446.654C2024.6 407.427 2001.12 382.084 1965.36 382.084ZM2056.55 540.705H2109.62V331.017H2056.55V540.705ZM2143.28 367.392H2195.49V322.363H2143.28V367.392ZM2142.85 540.705H2195.91V386.649H2142.85V540.705ZM2322.25 382.084C2302.42 382.084 2285.4 389.74 2273.94 402.483L2266.67 386.649H2229.44V540.705H2282.5V458.447C2282.5 438.715 2291.96 427.159 2308.46 427.159C2321.72 427.159 2328.43 436.051 2328.43 453.977V540.705H2381.49V446.654C2381.49 407.427 2358 382.084 2322.25 382.084ZM2572.06 462.203C2572.06 417.033 2537.68 381.608 2487.99 381.608C2439.64 381.608 2404.31 416.319 2404.31 463.581C2404.31 510.655 2439.93 545.746 2487.99 545.746C2526.65 545.746 2557.79 523.779 2568.64 488.639H2515.86C2510.77 497.675 2500.41 503.094 2487.99 503.094C2471.26 503.094 2460.04 493.965 2456.57 476.278H2570.96C2571.63 471.522 2572.06 466.862 2572.06 462.203ZM2487.99 423.166C2504.02 423.166 2515.1 431.488 2519.76 446.893H2457.47C2461.8 431.583 2472.54 423.166 2487.99 423.166Z" fill="white"/>
<path d="M8.09082 729.324L3142.94 709.341" stroke="#FFCC00" stroke-width="3.99987" stroke-miterlimit="22.9256" stroke-linecap="round" stroke-linejoin="round"/>
</svg>
